# xmcd
#
# Track frame offsets:
#	150
#	13543
#	24198
#	39549
#	49033
#	64706
#	71654
#	82974
#	99638
#	110779
#	121857
#	137386
#	181096
#	191369
#	203362
#	220234
#	236409
#
# Disc length: 3288 seconds
#
# Revision: 0
# Processed by: cddbd v1.4PL0 Copyright (c) Steve Scherf et al.
# Submitted via: EasyCDDAExtractor 4.6.9.1
#
DISCID=d60cd611
DTITLE=Tammy Wynette - Stand By Your Man
DYEAR=2000
DGENRE=Country
TTITLE0=My Man
TTITLE1=Another Change
TTITLE2=Till I Make It On My Own
TTITLE3=Rocky Top
TTITLE4=Alive And Well
TTITLE5=Medley 1
TTITLE6=Making Love
TTITLE7=You And Me
TTITLE8=Take Me To Your World
TTITLE9=Womanhood
TTITLE10=Crying In The Rain
TTITLE11=Medley 2
TTITLE12=Fairy Tailes
TTITLE13=Stand By Your Man
TTITLE14=Medley 3
TTITLE15=Let's Call It A Day Today
TTITLE16=Heart Over Mind
EXTD=
EXTT0=
EXTT1=
EXTT2=
EXTT3=
EXTT4=
EXTT5=
EXTT6=
EXTT7=
EXTT8=
EXTT9=
EXTT10=
EXTT11=
EXTT12=
EXTT13=
EXTT14=
EXTT15=
EXTT16=
PLAYORDER=
